<svg xmlns="http://www.w3.org/2000/svg" xmlns:xlink="http://www.w3.org/1999/xlink" version="1.1" width="470" height="144" viewBox="0 0 470 144" xml:space="preserve">
<desc>Created with Fabric.js 3.5.0</desc>
<defs>
</defs>
<rect x="0" y="0" width="100%" height="100%" fill="rgba(0,0,0,0)"/>
<g transform="matrix(1 0 0 1 235 72)" style="" id="739215">
		
<path xml:space="preserve" font-family="ChopinScript" font-size="127" font-style="normal" font-weight="normal" style="stroke: none; stroke-width: 0; stroke-dasharray: none; stroke-linecap: butt; stroke-dashoffset: 0; stroke-linejoin: miter; stroke-miterlimit: 4; is-custom-font: true; font-file-url: https://cdn.pixelied.com/user-assets/fonts/66d74c0c-8bf2-4296-a85c-fde6f37ea985.ttf; fill: rgb(255,255,255); fill-rule: nonzero; opacity: 1; white-space: pre;" d="M-74.10 41.55L-74.10 41.55Q-74.10 35.20-79.57 31.01L-79.57 31.01Q-84.39 27.07-91.12 27.07L-91.12 27.07Q-98.11 27.07-104.71 30.12L-104.71 30.12Q-109.92 32.53-131.64 45.74L-131.64 45.74L-135.45 42.18Q-123.25 35.83-114.24 23.00L-114.24 23.00Q-109.66 16.27-107.89 11.45L-107.89 11.45Q-105.98 6.24-105.22-1.38L-105.22-1.38Q-78.55-11.79-78.55-34.65L-78.55-34.65Q-78.55-50.40-92.90-60.18L-92.90-60.18Q-105.73-68.82-122.11-68.82L-122.11-68.82Q-137.99-68.82-151.57-59.55L-151.57-59.55Q-166.94-49.13-166.94-34.15L-166.94-34.15Q-166.94-15.48-152.21-9.38L-152.21-9.38L-151.83-11.03Q-165.16-16.87-165.16-34.15L-165.16-34.15Q-165.16-48.50-150.30-58.28L-150.30-58.28Q-137.22-67.04-122.11-67.04L-122.11-67.04Q-106.24-67.04-94.17-58.91L-94.17-58.91Q-80.33-49.64-80.33-34.65L-80.33-34.65Q-80.33-13.44-104.97-3.67L-104.97-3.67Q-103.44-24.62-90.87-36.30L-90.87-36.30Q-86.55-40.24-86.55-41.64L-86.55-41.64Q-86.55-43.67-87.82-43.67L-87.82-43.67Q-108.65-37.57-124.65-16.24L-124.65-16.24Q-131.51-7.22-134.56-0.24L-134.56-0.24L-166.18-0.24Q-179.26-0.24-188.91 6.75L-188.91 6.75Q-199.83 14.62-199.83 27.07L-199.83 27.07Q-199.83 35.20-193.74 39.51L-193.74 39.51Q-188.28 43.32-179.90 43.32L-179.90 43.32Q-161.35 43.32-143.45 16.91L-143.45 16.91Q-139.76 11.32-137.29 7.57Q-134.81 3.83-133.41 1.67L-133.41 1.67Q-123.63 1.67-117.92 0.53L-117.92 0.53Q-117.92 6.49-122.62 17.92L-122.62 17.92Q-124.40 22.37-125.79 25.67Q-127.19 28.97-128.21 31.26L-128.21 31.26Q-128.84 32.66-132.91 36.34L-132.91 36.34Q-136.84 39.90-138.11 39.90L-138.11 39.90Q-144.21 37.10-148.27 37.10L-148.27 37.10Q-151.45 37.10-151.45 39.64L-151.45 39.64Q-151.45 43.45-144.46 43.45L-144.46 43.45Q-143.19 43.45-141.73 43.26Q-140.27 43.07-138.49 42.82L-138.49 42.82L-133.92 46.88Q-160.97 62.88-180.40 62.88L-180.40 62.88Q-201.36 62.88-215.20 50.56L-215.20 50.56Q-229.81 37.99-229.81 17.29L-229.81 17.29Q-229.81-2.27-217.74-14.71L-217.74-14.71Q-205.80-27.03-186.12-27.03L-186.12-27.03Q-182.82-27.03-178.75-25.38L-178.75-25.38L-178.75-26.91Q-182.94-28.43-186.12-28.43L-186.12-28.43Q-206.69-28.43-218.88-15.86L-218.88-15.86Q-230.95-3.16-230.95 17.29L-230.95 17.29Q-230.95 38.50-216.09 51.45L-216.09 51.45Q-201.87 64.15-180.40 64.15L-180.40 64.15Q-162.50 64.15-141.29 52.72L-141.29 52.72Q-138.11 50.94-136.02 49.74Q-133.92 48.53-132.65 47.90L-132.65 47.90Q-128.97 50.44-126.11 52.34Q-123.25 54.25-121.09 55.39L-121.09 55.39Q-109.92 61.10-97.35 60.98L-97.35 60.98Q-89.09 60.72-81.98 55.39L-81.98 55.39Q-74.10 49.29-74.10 41.55ZM-96.08-38.46L-96.08-38.46Q-95.95-38.46-95.95-38.34L-95.95-38.34Q-96.58-37.32-100.90-32.24L-100.90-32.24Q-115.51-15.35-117.79-1.38L-117.79-1.38Q-123.89-0.24-132.02-0.24L-132.02-0.24Q-128.84-9.00-118.94-20.43L-118.94-20.43Q-116.90-22.59-114.24-25.26Q-111.57-27.92-108.01-30.84L-108.01-30.84Q-99.12-38.46-96.08-38.46ZM-75.88 41.67L-75.88 41.67Q-75.88 48.91-83.12 54.25L-83.12 54.25Q-89.85 59.20-97.35 59.20L-97.35 59.20Q-115.76 59.20-130.37 46.88L-130.37 46.88Q-109.41 34.18-104.97 32.15L-104.97 32.15Q-97.73 28.85-91.00 28.85L-91.00 28.85Q-87.95 28.85-85.22 29.80Q-82.49 30.75-80.39 32.40Q-78.30 34.05-77.09 36.47Q-75.88 38.88-75.88 41.67ZM-141.80 40.91L-141.80 40.91Q-144.59 41.55-145.99 41.55L-145.99 41.55Q-148.78 41.55-148.78 39.90L-148.78 39.90Q-148.78 39.13-147.64 39.13L-147.64 39.13Q-145.99 39.13-141.80 40.91ZM-161.61 1.92L-136.08 1.92Q-147.89 20.21-153.23 26.05L-153.23 26.05Q-167.20 41.55-179.90 41.55L-179.90 41.55Q-193.87 41.55-193.87 27.07L-193.87 27.07Q-193.87 16.02-182.94 8.53L-182.94 8.53Q-173.29 1.92-161.61 1.92L-161.61 1.92ZM-41.85 12.21L-41.85 12.21L-42.86 11.32Q-51.37 22.50-64.71 22.88L-64.71 22.88Q-61.66 18.31-61.66 11.32L-61.66 11.32Q-61.66 1.80-71.18 1.80L-71.18 1.80Q-74.74 1.80-76.77 6.11L-76.77 6.11Q-78.30 9.42-78.30 13.48L-78.30 13.48Q-78.30 20.72-73.72 23.13L-73.72 23.13Q-76.01 27.96-80.58 33.42L-80.58 33.42Q-86.17 40.15-89.47 39.90L-89.47 39.90Q-93.54 39.90-93.54 36.09L-93.54 36.09Q-93.54 32.28-87.19 20.21L-87.19 20.21Q-82.99 12.21-80.77 8.02Q-78.55 3.83-78.30 3.32L-78.30 3.32Q-71.18 0.40-60.01-10.14L-60.01-10.14Q-45.53-23.99-45.53-35.54L-45.53-35.54Q-45.53-37.45-46.61-39.16Q-47.69-40.88-49.47-40.88L-49.47-40.88Q-60.64-40.88-81.72-11.79L-81.72-11.79Q-85.03-7.09-87.95-2.14Q-90.87 2.81-93.41 8.27L-93.41 8.27Q-99.63 21.99-99.63 32.02L-99.63 32.02Q-99.63 36.09-97.54 38.82Q-95.44 41.55-91.38 41.55L-91.38 41.55Q-85.03 41.55-76.64 35.83L-76.64 35.83Q-68.90 30.37-65.47 24.40L-65.47 24.40Q-50.86 24.27-41.85 12.21ZM-50.86-34.27L-50.86-34.27Q-51.12-29.45-58.23-18.14L-58.23-18.14Q-66.87-4.43-77.53 1.16L-77.53 1.16Q-75.25-4.17-73.09-8.49Q-70.93-12.81-68.90-16.49L-68.90-16.49Q-67.25-19.29-65.34-22.27Q-63.44-25.26-61.28-28.56L-61.28-28.56Q-54.67-38.21-52.26-38.21L-52.26-38.21Q-50.74-38.21-50.86-34.27ZM-69.53 8.40L-69.53 8.40Q-69.53 13.23-72.96 21.61L-72.96 21.61Q-76.52 18.94-76.52 13.48L-76.52 13.48Q-76.52 10.43-75.63 7.76L-75.63 7.76Q-74.36 3.83-71.95 3.83L-71.95 3.83Q-69.53 3.83-69.53 8.40ZM5.02 12.21L5.02 12.21L4.00 11.32Q-4.51 19.19-11.37 22.50L-11.37 22.50Q-12.76 23.13-13.72 23.45Q-14.67 23.77-15.18 23.89L-15.18 23.89Q-14.54 22.50-14.03 21.35Q-13.53 20.21-13.27 19.58L-13.27 19.58Q-12.13 16.78-12.13 13.73L-12.13 13.73Q-12.13 8.91-14.92 5.35Q-17.72 1.80-22.42 1.80L-22.42 1.80Q-33.21 1.80-42.23 10.43L-42.23 10.43Q-50.99 19.07-50.99 29.99L-50.99 29.99Q-50.99 34.31-48.45 37.86L-48.45 37.86Q-45.53 41.55-41.47 41.55L-41.47 41.55Q-34.35 41.55-26.99 36.85L-26.99 36.85Q-20.38 32.28-16.32 25.80L-16.32 25.80Q-12.51 24.66-10.60 23.89L-10.60 23.89Q0.57 17.67 5.02 12.21ZM-19.75 6.49L-19.75 6.49Q-19.75 13.10-24.70 23.51L-24.70 23.51Q-28.51 23.00-29.53 19.70L-29.53 19.70Q-26.10 19.32-26.10 17.16L-26.10 17.16Q-26.10 14.50-28.77 14.50L-28.77 14.50Q-32.70 14.50-32.70 18.56L-32.70 18.56Q-32.70 22.50-25.72 24.78L-25.72 24.78Q-34.86 39.90-41.47 39.90L-41.47 39.90Q-43.88 39.90-43.88 35.83L-43.88 35.83Q-43.88 29.10-36.51 16.65L-36.51 16.65Q-28.77 3.32-22.80 3.32L-22.80 3.32Q-19.75 3.32-19.75 6.49ZM57.72 12.21L57.72 12.21L56.71 11.32Q50.99 19.58 43.24 27.45L43.24 27.45Q32.32 38.75 26.73 38.75L26.73 38.75Q23.43 38.75 23.43 36.21L23.43 36.21Q23.43 34.31 25.46 30.62L25.46 30.62L41.59 0.27Q40.96 0.40 39.18 2.18L39.18 2.18Q37.53 3.83 37.02 3.83L37.02 3.83Q36.39 3.83 34.80 3.38Q33.21 2.94 32.45 2.94L32.45 2.94Q30.42 2.94 29.53 4.59L29.53 4.59L19.62 22.24Q17.84 25.42 12.89 31.77L12.89 31.77Q7.05 39.13 4.76 39.13L4.76 39.13Q1.71 39.13 1.71 35.83L1.71 35.83Q1.71 32.66 3.75 28.72L3.75 28.72L18.86 0.27Q18.22 0.53 16.57 2.18Q14.92 3.83 14.29 3.83L14.29 3.83Q13.53 3.83 12.07 3.38Q10.60 2.94 10.10 2.94L10.10 2.94Q7.68 2.94 6.67 4.72L6.67 4.72L-2.60 21.99Q-6.79 29.86-6.79 35.45L-6.79 35.45Q-6.79 41.55-0.32 41.55L-0.32 41.55Q4.00 41.55 7.30 39.26L7.30 39.26Q8.32 38.37 10.29 36.40Q12.26 34.43 15.05 31.13L15.05 31.13Q15.94 41.55 22.54 41.55L22.54 41.55Q31.31 41.55 43.37 29.86L43.37 29.86Q47.05 26.18 50.61 21.86Q54.17 17.54 57.72 12.21ZM87.69 12.21L87.69 12.21L86.68 11.32Q82.99 16.15 79.95 20.15Q76.90 24.15 74.49 27.20L74.49 27.20Q71.06 31.39 66.87 34.69L66.87 34.69Q61.02 39.13 57.47 39.13L57.47 39.13Q56.20 39.13 55.25 37.42Q54.29 35.70 54.29 34.31L54.29 34.31Q54.29 32.40 56.96 27.58L56.96 27.58L70.17 4.46L79.69 4.46L80.45 2.56L70.93 2.56L83.76-19.92L82.36-19.92Q79.57-15.60 77.41-12.49Q75.25-9.38 73.60-7.48L73.60-7.48Q68.39-1.38 62.29 2.56L62.29 2.56L52.26 2.56L50.23 4.46L59.37 4.46L49.59 24.66Q46.93 30.24 46.93 33.42L46.93 33.42Q46.93 36.59 48.77 39.07Q50.61 41.55 53.66 41.55L53.66 41.55Q63.31 41.55 73.34 31.13L73.34 31.13Q76.26 27.96 79.88 23.32Q83.50 18.69 87.69 12.21ZM178.37 29.48L193.87 12.21L192.85 11.32L177.48 28.47Q167.45 39.64 164.40 39.64L164.40 39.64Q161.86 39.64 161.86 36.59L161.86 36.59Q161.86 35.45 163.77 32.40L163.77 32.40L176.09 12.46Q178.24 8.78 178.24 8.02L178.24 8.02Q178.24 5.61 176.53 3.70Q174.82 1.80 172.40 1.80L172.40 1.80Q168.08 1.80 165.29 3.70L165.29 3.70Q163.13 5.10 157.29 10.56L157.29 10.56Q157.29 1.80 151.57 1.80L151.57 1.80Q143.95 1.80 133.54 12.46L133.54 12.46L140.02 0.27Q139.26 0.53 137.60 2.18L137.60 2.18Q135.83 3.70 135.45 3.70L135.45 3.70Q134.81 3.70 133.10 3.32Q131.38 2.94 130.49 2.94L130.49 2.94Q128.84 2.94 127.95 4.59L127.95 4.59Q127.32 5.22 124.90 9.92L124.90 9.92L107.38 43.07Q110.93 39.51 111.95 39.51L111.95 39.51Q112.20 39.51 112.84 39.64Q113.47 39.77 114.30 39.96Q115.13 40.15 115.95 40.28Q116.78 40.40 117.28 40.40L117.28 40.40Q118.81 40.40 123.38 31.39L123.38 31.39Q128.97 20.46 132.52 16.65L132.52 16.65Q143.83 4.97 147.00 4.97L147.00 4.97Q148.40 4.97 148.40 6.75L148.40 6.75Q148.40 8.15 129.48 43.07L129.48 43.07Q133.03 39.51 134.05 39.51L134.05 39.51Q134.43 39.51 136.02 39.96Q137.60 40.40 138.24 40.40L138.24 40.40Q140.78 40.40 141.67 38.75L141.67 38.75Q145.22 32.40 147.89 27.51Q150.56 22.62 152.34 19.07L152.34 19.07Q163.89 4.97 167.20 4.97L167.20 4.97Q169.48 4.97 169.48 7.13L169.48 7.13Q169.48 8.65 161.86 20.21L161.86 20.21Q154.24 31.89 154.24 33.80L154.24 33.80Q154.24 37.10 156.40 39.32Q158.56 41.55 161.86 41.55L161.86 41.55Q165.93 41.55 169.99 38.24L169.99 38.24Q172.02 36.59 178.37 29.48L178.37 29.48ZM232.98 12.21L232.98 12.21L231.97 11.32Q227.14 19.32 216.85 28.34L216.85 28.34Q203.90 39.77 195.52 39.77L195.52 39.77Q192.09 39.77 192.09 35.07L192.09 35.07Q192.09 31.13 194.37 26.18L194.37 26.18Q200.22 26.18 209.11 22.12L209.11 22.12Q220.66 16.78 220.66 8.78L220.66 8.78Q220.66 5.86 218.50 3.83Q216.34 1.80 213.42 1.80L213.42 1.80Q204.53 1.80 195.26 9.42L195.26 9.42Q184.59 18.18 184.59 30.37L184.59 30.37Q184.59 35.20 187.71 38.37Q190.82 41.55 195.52 41.55L195.52 41.55Q204.79 41.55 218.12 29.35L218.12 29.35Q228.41 19.83 232.98 12.21ZM214.31 6.37L214.31 6.37Q214.31 10.81 207.33 17.04L207.33 17.04Q200.22 23.13 195.64 23.13L195.64 23.13Q205.55 3.45 211.65 3.45L211.65 3.45Q214.31 3.45 214.31 6.37Z"/></g>
</svg>