<svg xmlns="http://www.w3.org/2000/svg" xmlns:xlink="http://www.w3.org/1999/xlink" version="1.1" width="851" height="315" viewBox="0 0 851 315" xml:space="preserve">
<defs>
</defs>
<rect x="0" y="0" width="100%" height="100%" fill="rgba(255,255,255,0)"/>
<g transform="matrix(1 0 0 1 432.8048 133.1464)" style="" id="227461">
		
<path xml:space="preserve" font-family="Creattion Demo" font-size="237" font-style="normal" font-weight="normal" style="stroke: none; stroke-width: 0; stroke-dasharray: none; stroke-linecap: butt; stroke-dashoffset: 0; stroke-linejoin: miter; stroke-miterlimit: 4; is-custom-font: true; font-file-url: https://cdn.pixelied.com/user-assets/fonts/20d1bf0b-ae9b-4b4b-a2f6-945b04cd5352.otf; fill: rgb(255, 255, 255); fill-rule: nonzero; opacity: 1; white-space: pre;" d="M-277.10 52.12L-277.10 52.12L-277.10 52.12Q-277.33 52.35-277.79 52.46L-277.79 52.46Q-278.14 52.58-278.54 52.70Q-278.95 52.81-279.07 53.16L-279.07 53.16Q-280.57 55.24-282.42 58.60Q-284.27 61.95-285.49 65.37Q-286.70 68.78-286.47 71.15Q-286.24 73.53-283.46 73.53L-283.46 73.53Q-274.55 72.60-263.33 64.85Q-252.10 57.09-244.00 50.27L-244.00 50.27Q-242.50 49.11-241.34 48.18L-241.34 48.18Q-239.26 46.33-236.36 44.48Q-233.47 42.63-230.81 42.05Q-228.15 41.47-226.99 43.32L-226.99 43.32Q-226.76 46.10-228.03 50.27L-228.03 50.27Q-230.23 60.22-227.34 63.11Q-224.44 66.00-218.37 64.50Q-212.29 62.99-205.00 59.75L-205.00 59.75Q-202.69 58.60-201.88 59.06Q-201.07 59.52-201.53 60.68Q-201.99 61.84-203.73 62.65L-203.73 62.65Q-211.95 66.93-219.53 68.49Q-227.11 70.05-231.62 67.16Q-236.13 64.27-235.21 55.24L-235.21 55.24Q-234.63 51.19-235.50 51.08Q-236.36 50.96-239.84 53.97L-239.84 53.97Q-239.95 54.08-240.18 54.20L-240.18 54.20Q-241.11 55.01-242.27 55.94L-242.27 55.94Q-250.48 62.99-261.36 70.17Q-272.24 77.34-282.54 78.15L-282.54 78.15Q-286.24 78.27-288.90 76.88L-288.90 76.88Q-293.07 73.76-292.55 68.67Q-292.03 63.57-289.25 58.25Q-286.47 52.93-284.04 49.22L-284.04 49.22Q-283.46 48.18-283.00 47.37L-283.00 47.37Q-281.84 45.64-279.93 44.77Q-278.02 43.90-276.63 44.13L-276.63 44.13Q-275.36 44.25-274.61 44.94Q-273.86 45.64-274.32 47.37Q-274.78 49.11-277.10 52.12ZM-182.44 25.38L-182.44 25.38L-182.44 25.38Q-185.68 21.45-186.14 17.75L-186.14 17.75Q-186.37 12.19-182.78 9.88Q-179.20 7.56-174.22 11.38L-174.22 11.38Q-172.37 13.47-171.85 16.59Q-171.33 19.71-172.95 23.76L-172.95 23.76Q-173.64 25.15-173.47 25.91Q-173.29 26.66-171.79 27.35L-171.79 27.35Q-162.65 31.40-159.18 36.73Q-155.70 42.05-162.30 50.73L-162.30 50.73Q-165.77 55.24-168.90 61.78Q-172.02 68.32-170.86 73.29L-170.86 73.29Q-169.48 76.53-163.52 74.86Q-157.56 73.18-150.38 69.13Q-143.21 65.08-138.00 61.26L-138.00 61.26Q-136.38 59.87-135.45 59.93Q-134.53 59.99-134.47 60.91Q-134.41 61.84-135.45 62.88L-135.45 62.88Q-150.84 76.42-163.11 79.20Q-175.38 81.97-177.81 73.99Q-180.24 66.00-166.24 47.37L-166.24 47.37Q-162.30 41.93-165.08 38.52Q-167.86 35.11-173.53 31.98L-173.53 31.98Q-173.76 31.87-173.87 31.75L-173.87 31.75Q-175.03 30.94-175.90 31.11Q-176.77 31.29-178.16 33.20Q-179.54 35.11-180.24 35.92L-180.24 35.92Q-182.09 38.23-183.48 38.40Q-184.87 38.58-185.50 37.54Q-186.14 36.49-185.91 35.22L-185.91 35.22Q-185.56 34.06-184.75 33.95Q-183.94 33.83-181.40 30.94L-181.40 30.94Q-180.24 29.32-180.76 27.99Q-181.28 26.66-182.44 25.38ZM-176.88 20.87L-176.88 20.87L-176.88 20.87Q-176.42 17.98-177.46 15.78Q-178.50 13.58-179.78 13.52Q-181.05 13.47-180.93 17.17L-180.93 17.17Q-180.82 17.75-180.24 19.08Q-179.66 20.41-178.91 21.57Q-178.16 22.72-177.46 22.72L-177.46 22.72Q-177.23 22.72-177.17 22.43Q-177.11 22.14-177.11 21.80L-177.11 21.80Q-177.00 21.33-176.88 20.87ZM-141.70-3.31L-141.70-3.31L-141.70-3.31Q-141.93-2.27-143.44-2.22Q-144.94-2.16-146.68-2.85Q-148.41-3.55-149.22-4.65Q-150.03-5.74-148.76-7.02Q-147.49-8.29-143.09-9.45L-143.09-9.45Q-121.22-13.15-100.16-15.81L-100.16-15.81Q-96.11-16.28-93.97-16.74Q-91.83-17.20-90.61-18.30Q-89.40-19.40-88.12-21.83L-88.12-21.83Q-86.04-25.42-83.84-29.00L-83.84-29.00Q-83.38-29.81-82.92-30.62L-82.92-30.62Q-64.98-60.60-58.61-66.38L-58.61-66.38Q-48.66-75.53-50.05-63.37L-50.05-63.37Q-52.36-47.52-66.25-24.03L-66.25-24.03Q-66.25-23.91-66.37-23.68L-66.37-23.68Q-68.45-20.44-68.33-19.75Q-68.22-19.05-65.67-19.40L-65.67-19.40Q-65.21-19.40-64.86-19.40L-64.86-19.40Q-63.59-19.52-62.32-19.52L-62.32-19.52Q-33.50-21.37-3.07-21.14L-3.07-21.14Q-1.10-21.14-0.52-20.27Q0.06-19.40-0.64-18.65Q-1.33-17.90-3.41-18.01L-3.41-18.01Q-36.05-18.59-66.71-15.00L-66.71-15.00Q-67.76-14.89-68.57-14.77L-68.57-14.77Q-70.30-14.77-71.34-14.31Q-72.38-13.85-73.54-11.99L-73.54-11.99Q-88.01 10.23-103.80 29.78Q-119.60 49.34-130.13 58.94L-130.13 58.94Q-130.71 59.52-131.06 59.75Q-131.40 59.99-131.63 60.10L-131.63 60.10Q-131.87 60.22-132.10 60.45Q-132.33 60.68-132.68 61.14Q-133.02 61.61-133.60 62.65L-133.60 62.65Q-159.29 103.61-185.33 144.35L-185.33 144.35Q-183.25 144.35-183.42 145.91Q-183.59 147.47-185.21 148.75L-185.21 148.75Q-190.31 152.56-192.27 151.06Q-194.24 149.56-192.04 144.46L-192.04 144.46Q-186.02 134.97-180.01 125.60L-180.01 125.60Q-138.00 60.33-97.38-6.32L-97.38-6.32Q-96.92-7.25-96.45-7.94L-96.45-7.94Q-95.07-9.91-95.12-10.66Q-95.18-11.42-97.96-10.95L-97.96-10.95Q-119.48-7.83-141.70-4.01L-141.70-4.01Q-141.70-3.66-141.70-3.31ZM-81.30-22.29L-81.30-22.29L-81.30-22.29Q-82.45-20.33-82.92-19.05Q-83.38-17.78-82.34-17.90L-82.34-17.90Q-80.60-18.13-78.86-18.24L-78.86-18.24Q-77.71-18.24-77.01-18.47Q-76.32-18.71-75.74-19.46Q-75.16-20.21-74.24-21.71L-74.24-21.71Q-61.39-43.70-56.41-60.60L-56.41-60.60Q-62.66-53.65-78.05-27.73L-78.05-27.73Q-78.75-26.57-79.44-25.42L-79.44-25.42Q-80.37-23.91-81.30-22.29ZM-88.59-10.14L-88.59-10.14L-88.59-10.14Q-92.52-3.66-96.80 3.51L-96.80 3.51Q-107.10 21.33-118.79 39.16L-118.79 39.16Q-124.81 48.18-117.98 40.66L-117.98 40.66Q-100.51 20.29-81.76-9.22L-81.76-9.22Q-80.49-11.42-80.02-12.28Q-79.56-13.15-79.96-13.32Q-80.37-13.50-81.53-13.38L-81.53-13.38Q-81.64-13.38-81.87-13.38L-81.87-13.38Q-82.11-13.27-82.45-13.27L-82.45-13.27Q-84.42-13.15-85.92-12.63Q-87.43-12.11-88.59-10.14ZM-102.13 58.83L-102.13 58.83L-102.13 58.83Q-102.13 58.83-102.01 58.71L-102.01 58.71Q-101.32 58.13-98.65 55.59L-98.65 55.59L-42.18-35.14Q-35.93-39.07-33.96-37.16Q-32.00-35.25-32.63-30.22Q-33.27-25.19-35.01-19.98Q-36.74-14.77-37.90-12.11L-37.90-12.11Q-45.19 3.51-57.11 18.85Q-69.03 34.18-80.14 45.75Q-91.25 57.32-95.99 61.61L-95.99 61.61L-102.82 71.91Q-105.83 76.30-104.56 75.67Q-103.28 75.03-99.35 71.44L-99.35 71.44Q-90.09 62.76-79.27 53.39Q-68.45 44.02-59.02 37.82Q-49.59 31.63-44.50 32.56L-44.50 32.56Q-37.78 34.30-41.60 48.07L-41.60 48.07Q-44.38 58.94-43.97 64.50Q-43.57 70.05-40.91 70.86L-40.91 70.86Q-33.73 72.72-14.87 61.61L-14.87 61.61Q-13.71 60.91-12.85 61.49Q-11.98 62.07-12.04 63.17Q-12.09 64.27-13.60 65.31L-13.60 65.31Q-23.67 71.67-30.90 74.57Q-38.13 77.46-42.88 75.96L-42.88 75.96Q-53.64 73.06-46.23 45.75L-46.23 45.75Q-43.92 36.61-48.43 37.65Q-52.94 38.69-61.39 45.69Q-69.84 52.70-79.44 61.72L-79.44 61.72Q-90.44 71.91-99.23 78.96Q-108.03 86.02-110.80 84.29L-110.80 84.29Q-112.77 82.90-112.42 80.41Q-112.08 77.92-110.63 75.15Q-109.18 72.37-107.91 70.40L-107.91 70.40Q-107.45 69.71-107.10 69.13L-107.10 69.13L-104.44 64.85Q-103.40 62.76-103.17 61.14L-103.17 61.14Q-102.94 59.64-102.13 58.83ZM-69.49 20.64L-69.49 20.64L-69.49 20.64Q-84.65 43.44-67.06 21.45L-67.06 21.45Q-54.91 7.33-46.81-7.83L-46.81-7.83Q-42.07-17.09-41.54-19.17Q-41.02-21.25-43.45-18.24Q-45.88-15.23-49.88-9.33Q-53.87-3.43-58.15 3.11Q-62.43 9.65-65.56 14.62L-65.56 14.62Q-68.57 19.25-69.49 20.64ZM14.29 37.07L14.29 37.07L14.29 37.07Q20.77 38.46 19.50 42.63Q18.23 46.79 12.79 51.31Q7.35 55.82 1.50 58.08Q-4.34 60.33-7.00 57.90L-7.00 57.90Q-8.85 60.22-11.23 63.98Q-13.60 67.74-13.94 70.63L-13.94 70.63Q-13.94 75.03-7.93 74.45Q-1.91 73.87 6.42 70.63Q14.75 67.39 21.70 63.98Q28.64 60.56 30.49 59.29L30.49 59.29Q31.88 58.37 33.10 58.48Q34.31 58.60 34.14 59.75Q33.96 60.91 31.07 62.99L31.07 62.99Q27.60 65.42 19.33 69.88Q11.05 74.34 1.79 77.58Q-7.46 80.82-13.94 79.77Q-20.43 78.73-20.19 70.29L-20.19 70.29Q-19.61 64.61-13.71 56.75Q-7.81 48.88 0.00 42.92Q7.81 36.96 14.29 37.07ZM11.98 43.44L11.98 43.44L11.98 43.44Q10.94 43.78 8.39 45.35Q5.84 46.91 3.01 48.88Q0.17 50.84-1.91 52.58Q-3.99 54.32-4.34 55.13Q-4.69 55.94-2.26 55.13L-2.26 55.13Q1.10 53.85 5.96 50.67Q10.82 47.49 13.37 44.83L13.37 44.83Q14.52 43.55 14.35 43.21Q14.18 42.86 11.98 43.44ZM90.32 58.71L90.32 58.71Q93.45 57.09 94.02 58.48Q94.60 59.87 91.83 61.84L91.83 61.84Q87.43 64.50 80.54 66.99Q73.66 69.48 68.22 68.49Q62.78 67.51 62.55 59.75L62.55 59.75L62.55 59.18Q62.66 57.56 62.32 57.50Q61.97 57.44 60.35 58.48L60.35 58.48Q42.41 70.17 34.02 73.06Q25.63 75.96 24.13 73.29L24.13 73.29Q22.28 69.59 28.76 61.78Q35.24 53.97 45.48 46.91Q55.72 39.85 65.09 38.40Q74.47 36.96 78.29 45.87L78.29 45.87Q78.63 47.02 77.94 47.95Q77.24 48.88 76.09 49.22L76.09 49.22Q74.93 49.57 73.48 48.76Q72.04 47.95 71.46 46.79L71.46 46.79Q71.46 46.56 71.57 46.33Q71.69 46.10 71.81 45.87L71.81 45.87Q71.92 45.64 72.04 45.40Q72.15 45.17 72.04 44.94L72.04 44.94Q69.14 41.01 62.09 43.78Q55.03 46.56 47.16 52.46Q39.29 58.37 33.85 63.63Q28.41 68.90 28.76 70.05L28.76 70.05Q29.22 71.21 37.90 66.23Q46.58 61.26 66.37 47.60L66.37 47.60Q67.41 47.02 68.51 47.20Q69.61 47.37 70.30 48.41L70.30 48.41Q71.11 49.80 70.42 51.19L70.42 51.19Q66.02 60.68 69.43 62.88Q72.85 65.08 79.27 63.23Q85.69 61.37 90.32 58.71ZM134.87 69.24L134.87 69.24L134.87 69.24Q135.80 69.36 138.29 66.99Q140.78 64.61 144.13 61.03L144.13 61.03Q149.69 55.01 155.65 49.69Q161.61 44.36 165.66 44.25L165.66 44.25Q169.48 44.83 170.00 48.59Q170.52 52.35 170.05 56.86L170.05 56.86Q169.71 59.75 169.77 62.13Q169.82 64.50 170.86 65.54L170.86 65.54Q172.83 67.51 185.91 59.75L185.91 59.75Q187.53 58.83 188.51 59.18Q189.50 59.52 189.32 60.56Q189.15 61.61 187.18 62.76L187.18 62.76Q178.62 68.09 173.99 69.53Q169.36 70.98 166.81 68.67L166.81 68.67Q162.53 64.50 163.69 53.97L163.69 53.97Q163.81 51.54 163.17 51.60Q162.53 51.65 160.45 53.39L160.45 53.39Q160.22 53.62 159.99 53.74L159.99 53.74Q156.51 56.63 152.12 60.91L152.12 60.91Q146.68 66.23 141.64 70.23Q136.61 74.22 133.60 73.29L133.60 73.29Q129.55 71.56 129.44 66.70Q129.32 61.84 131.23 56.11Q133.14 50.38 135.11 45.87L135.11 45.87Q136.03 43.55 136.61 42.05L136.61 42.05Q137.42 39.16 133.83 41.35Q130.25 43.55 124.46 48.36Q118.67 53.16 112.95 58.31Q107.22 63.46 103.75 66.58L103.75 66.58Q101.78 68.32 101.32 68.90L101.32 68.90Q100.74 69.36 99.58 70.29L99.58 70.29Q97.38 72.37 94.02 75.20Q90.67 78.04 87.54 80.01Q84.42 81.97 82.80 81.39L82.80 81.39Q79.33 79.54 81.99 74.10L81.99 74.10Q88.93 59.99 97.96 47.72L97.96 47.72Q102.59 41.12 106.87 34.41L106.87 34.41Q106.99 34.18 106.99 34.06Q106.99 33.95 106.75 33.72L106.75 33.72Q106.75 33.72 106.64 33.60L106.64 33.60Q105.83 32.79 106.06 31.87Q106.29 30.94 107.22 29.90L107.22 29.90Q107.80 29.32 109.36 28.28Q110.92 27.24 112.54 26.83Q114.16 26.43 114.85 27.58Q115.55 28.74 114.28 32.44L114.28 32.44Q107.10 45.29 97.96 58.37L97.96 58.37Q95.88 61.49 93.91 64.50L93.91 64.50Q91.13 68.67 91.83 68.43Q92.52 68.20 95.53 65.54L95.53 65.54Q96.34 64.85 97.15 64.15L97.15 64.15Q104.90 57.32 113.41 50.32Q121.91 43.32 128.97 38.87Q136.03 34.41 139.50 35.34L139.50 35.34Q144.25 37.54 141.24 46.45L141.24 46.45Q141.01 47.02 140.43 48.53L140.43 48.53Q139.39 51.65 137.71 56.40Q136.03 61.14 135.05 65.02Q134.06 68.90 134.87 69.24ZM245.74 58.71L245.74 58.71Q248.86 57.09 249.44 58.48Q250.02 59.87 247.24 61.84L247.24 61.84Q242.84 64.50 235.96 66.99Q229.07 69.48 223.63 68.49Q218.20 67.51 217.96 59.75L217.96 59.75L217.96 59.18Q218.08 57.56 217.73 57.50Q217.39 57.44 215.76 58.48L215.76 58.48Q197.83 70.17 189.44 73.06Q181.05 75.96 179.54 73.29L179.54 73.29Q177.69 69.59 184.17 61.78Q190.65 53.97 200.89 46.91Q211.14 39.85 220.51 38.40Q229.88 36.96 233.70 45.87L233.70 45.87Q234.05 47.02 233.35 47.95Q232.66 48.88 231.50 49.22L231.50 49.22Q230.35 49.57 228.90 48.76Q227.45 47.95 226.87 46.79L226.87 46.79Q226.87 46.56 226.99 46.33Q227.11 46.10 227.22 45.87L227.22 45.87Q227.34 45.64 227.45 45.40Q227.57 45.17 227.45 44.94L227.45 44.94Q224.56 41.01 217.50 43.78Q210.44 46.56 202.57 52.46Q194.70 58.37 189.26 63.63Q183.83 68.90 184.17 70.05L184.17 70.05Q184.64 71.21 193.31 66.23Q201.99 61.26 221.78 47.60L221.78 47.60Q222.82 47.02 223.92 47.20Q225.02 47.37 225.72 48.41L225.72 48.41Q226.53 49.80 225.83 51.19L225.83 51.19Q221.44 60.68 224.85 62.88Q228.26 65.08 234.69 63.23Q241.11 61.37 245.74 58.71ZM237.17 75.15L237.17 75.15L237.17 75.15Q239.49 69.48 244.17 61.37Q248.86 53.27 253.26 45.87L253.26 45.87Q255.69 41.93 257.43 39.04L257.43 39.04Q256.73 38.11 256.73 37.07Q256.73 36.03 257.43 35.22L257.43 35.22Q260.43 31.98 261.82 31.63L261.82 31.63L262.05 31.52Q263.10 31.17 263.91 31.52L263.91 31.52Q265.64 32.10 266.10 33.72L266.10 33.72Q266.10 33.83 266.10 34.06L266.10 34.06Q266.10 34.18 266.10 34.30L266.10 34.30Q266.10 35.34 265.53 36.38L265.53 36.38Q261.24 43.32 255.98 52.17Q250.71 61.03 246.66 68.20L246.66 68.20Q249.44 65.54 255.63 60.51Q261.82 55.47 268.01 51.13Q274.20 46.79 276.87 46.56L276.87 46.56Q281.03 46.68 281.61 49.86Q282.19 53.04 281.61 56.98L281.61 56.98Q281.26 59.99 281.50 62.13Q281.73 64.27 283.87 64.27Q286.01 64.27 291.22 60.80L291.22 60.80Q292.72 59.87 293.36 60.33Q293.99 60.80 293.76 61.90Q293.53 62.99 292.49 63.69L292.49 63.69Q282.07 70.29 278.72 66.18Q275.36 62.07 276.98 52.12L276.98 52.12Q274.55 52.35 269.69 56.22Q264.83 60.10 259.16 65.19L259.16 65.19Q254.18 69.59 249.67 73.29Q245.16 77.00 242.03 78.62L242.03 78.62Q239.72 79.66 238.10 78.62Q236.48 77.58 237.17 75.15Z"/></g>
</svg>
