<svg xmlns="http://www.w3.org/2000/svg" xmlns:xlink="http://www.w3.org/1999/xlink" version="1.1" width="847" height="144" viewBox="0 0 847 144" xml:space="preserve">
<desc>Created with Fabric.js 3.5.0</desc>
<defs>
</defs>
<rect x="0" y="0" width="100%" height="100%" fill="rgba(0,0,0,0)"/>
<g transform="matrix(1 0 0 1 423.5 57.9805)" style="" id="594021">
		
<path xml:space="preserve" font-family="ChopinScript" font-size="127" font-style="normal" font-weight="normal" style="stroke: none; stroke-width: 0; stroke-dasharray: none; stroke-linecap: butt; stroke-dashoffset: 0; stroke-linejoin: miter; stroke-miterlimit: 4; is-custom-font: true; font-file-url: https://cdn.pixelied.com/user-assets/fonts/66d74c0c-8bf2-4296-a85c-fde6f37ea985.ttf; fill: rgb(255,255,255); fill-rule: nonzero; opacity: 1; white-space: pre;" d="M-246.06-39.35L-245.81-40.11Q-255.21-44.31-266.00-44.31L-266.00-44.31Q-274.64-44.31-286.19-40.24L-286.19-40.24Q-297.88-46.97-314.39-46.97L-314.39-46.97Q-334.58-46.97-346.01-35.03L-346.01-35.03Q-353.12-38.21-360.36-38.21L-360.36-38.21Q-379.03-38.21-392.37-24.37L-392.37-24.37Q-405.70-10.40-405.70 8.15L-405.70 8.15Q-405.70 25.29-394.27 34.94L-394.27 34.94Q-383.35 43.96-366.08 43.96L-366.08 43.96Q-349.31 43.96-335.09 35.83L-335.09 35.83Q-317.44 25.67-311.59 6.37L-311.59 6.37Q-308.04 6.75-302.58 6.75L-302.58 6.75Q-290.77 6.75-281.75 0.40L-281.75 0.40Q-271.59-6.71-271.59-18.02L-271.59-18.02Q-271.59-23.22-274.76-28.68L-274.76-28.68Q-277.30-31.86-279.59-34.40Q-281.88-36.94-283.78-38.97L-283.78-38.97Q-274.76-43.29-266.00-43.29L-266.00-43.29Q-255.46-43.29-246.06-39.35L-246.06-39.35ZM-280.73-21.95L-280.73-21.95Q-280.73-11.67-288.23-3.92L-288.23-3.92Q-295.72 3.70-306.01 3.70L-306.01 3.70Q-307.53 3.70-308.80 3.70L-308.80 3.70Q-309.94 3.70-310.83 3.57L-310.83 3.57L-302.07-19.54Q-297.88-30.46-286.58-37.19L-286.58-37.19Q-280.73-32.88-280.73-21.95ZM-327.98-0.49L-327.98-0.49Q-331.28 1.29-334.58 1.29L-334.58 1.29Q-342.33 1.29-347.03-4.17L-347.03-4.17Q-351.85-9.76-351.85-17.25L-351.85-17.25Q-351.85-23.60-345.63-33.26L-345.63-33.26Q-336.36-29.19-331.41-20.05L-331.41-20.05Q-327.98-14.08-327.98-0.49ZM-289.24-38.97L-289.24-38.97Q-294.70-35.80-299.53-31.99Q-304.36-28.18-308.42-23.48L-308.42-23.48Q-312.23-19.29-317.31-11.29L-317.31-11.29L-326.07 7.00Q-334.20 24.15-337.25 27.20L-337.25 27.20Q-351.85 41.80-370.01 41.80L-370.01 41.80Q-385.38 41.80-395.16 32.78L-395.16 32.78Q-404.69 23.64-404.69 8.15L-404.69 8.15Q-404.69-9.63-391.48-23.48L-391.48-23.48Q-378.40-37.19-360.36-37.19L-360.36-37.19Q-354.52-37.19-346.77-33.89L-346.77-33.89Q-353.25-24.49-353.25-17.25L-353.25-17.25Q-353.25-13.06-351.92-9.44Q-350.58-5.82-348.11-3.22Q-345.63-0.62-342.20 0.91Q-338.77 2.43-334.58 2.43L-334.58 2.43Q-331.15 2.43-328.23 1.16L-328.23 1.16Q-330.14 8.78-335.22 15.51L-335.22 15.51Q-345.38 29.10-362.01 29.10L-362.01 29.10Q-374.46 29.10-383.10 21.23L-383.10 21.23Q-391.99 13.10-391.99 0.65L-391.99 0.65Q-391.99-2.01-389.70-8.87L-389.70-8.87L-390.97-8.49Q-393.26-3.92-393.26 0.65L-393.26 0.65Q-393.26 13.99-384.11 22.12L-384.11 22.12Q-375.48 30.24-362.01 30.24L-362.01 30.24Q-336.11 30.24-326.45 0.40L-326.45 0.40Q-322.90-3.54-321.63-5.57L-321.63-5.57L-322.01-7.48Q-324.93-2.90-326.45-1.38L-326.45-1.38Q-326.45-20.68-336.74-29.45L-336.74-29.45Q-338.01-30.46-340.04-31.73Q-342.07-33.00-344.87-34.40L-344.87-34.40Q-333.31-45.96-314.39-45.96L-314.39-45.96Q-298.13-45.96-289.24-38.97ZM-232.60 12.21L-232.60 12.21L-233.62 11.32Q-252.67 38.75-262.70 38.75L-262.70 38.75Q-266.00 38.75-266.00 35.32L-266.00 35.32Q-266.00 34.05-263.59 30.12L-263.59 30.12L-253.56 12.97Q-250.89 8.40-250.89 6.75L-250.89 6.75Q-250.89 4.72-252.16 3.26Q-253.43 1.80-255.33 1.80L-255.33 1.80Q-258.25 1.80-268.67 10.56L-268.67 10.56Q-264.22 5.35-264.22 1.80L-264.22 1.80Q-264.22-1.13-267.27-1.13L-267.27-1.13Q-270.19-1.13-272.22 2.30L-272.22 2.30Q-274.38 5.61-274.38 8.53L-274.38 8.53Q-274.38 13.35-271.46 13.35L-271.46 13.35Q-269.30 13.35-266.76 11.45L-266.76 11.45Q-264.22 9.42-263.46 9.42L-263.46 9.42Q-262.95 9.42-262.95 10.30L-262.95 10.30Q-262.95 11.45-268.16 20.46Q-273.37 29.48-273.37 32.40L-273.37 32.40Q-273.24 41.55-266.76 41.55L-266.76 41.55Q-256.98 41.55-246.70 31.01L-246.70 31.01Q-240.98 25.16-232.60 12.21ZM-266.13 1.92L-266.13 1.92Q-266.13 4.46-271.08 10.69L-271.08 10.69Q-272.48 10.69-272.48 8.53L-272.48 8.53Q-272.48 6.37-270.83 3.57Q-269.18 0.78-267.27 0.78L-267.27 0.78Q-266.13 0.78-266.13 1.92ZM-185.74 12.21L-185.74 12.21L-186.75 11.32Q-195.26 19.19-202.12 22.50L-202.12 22.50Q-203.52 23.13-204.47 23.45Q-205.42 23.77-205.93 23.89L-205.93 23.89Q-205.30 22.50-204.79 21.35Q-204.28 20.21-204.03 19.58L-204.03 19.58Q-202.88 16.78-202.88 13.73L-202.88 13.73Q-202.88 8.91-205.68 5.35Q-208.47 1.80-213.17 1.80L-213.17 1.80Q-223.96 1.80-232.98 10.43L-232.98 10.43Q-241.74 19.07-241.74 29.99L-241.74 29.99Q-241.74 34.31-239.20 37.86L-239.20 37.86Q-236.28 41.55-232.22 41.55L-232.22 41.55Q-225.11 41.55-217.74 36.85L-217.74 36.85Q-211.14 32.28-207.07 25.80L-207.07 25.80Q-203.26 24.66-201.36 23.89L-201.36 23.89Q-190.18 17.67-185.74 12.21ZM-210.50 6.49L-210.50 6.49Q-210.50 13.10-215.46 23.51L-215.46 23.51Q-219.27 23.00-220.28 19.70L-220.28 19.70Q-216.85 19.32-216.85 17.16L-216.85 17.16Q-216.85 14.50-219.52 14.50L-219.52 14.50Q-223.46 14.50-223.46 18.56L-223.46 18.56Q-223.46 22.50-216.47 24.78L-216.47 24.78Q-225.62 39.90-232.22 39.90L-232.22 39.90Q-234.63 39.90-234.63 35.83L-234.63 35.83Q-234.63 29.10-227.27 16.65L-227.27 16.65Q-219.52 3.32-213.55 3.32L-213.55 3.32Q-210.50 3.32-210.50 6.49ZM-141.80 12.21L-141.80 12.21L-142.81 11.32Q-153.61 29.35-174.18 42.31L-174.18 42.31Q-170.88 34.43-168.34 29.04Q-165.80 23.64-164.02 20.59L-164.02 20.59Q-160.46 14.24-157.42 9.23Q-154.37 4.21-151.83 0.27L-151.83 0.27Q-152.08 0.40-152.65 0.91Q-153.23 1.41-154.24 2.30L-154.24 2.30Q-156.40 4.08-156.40 4.08L-156.40 4.08L-157.92 3.45Q-159.45 2.94-161.23 2.94L-161.23 2.94Q-162.24 2.94-163.89 4.08L-163.89 4.08Q-166.05 1.80-168.85 1.80L-168.85 1.80Q-178.75 1.80-187.26 10.69L-187.26 10.69Q-195.64 19.45-195.64 29.35L-195.64 29.35Q-195.64 41.55-186.75 41.55L-186.75 41.55Q-183.45 41.55-179.13 36.47L-179.13 36.47L-182.94 46.25Q-187.77 48.02-192.28 50.25Q-196.79 52.47-200.85 55.26L-200.85 55.26Q-212.28 63.14-212.28 70.76L-212.28 70.76Q-212.28 72.92-211.33 74.69Q-210.38 76.47-208.85 77.68Q-207.33 78.88-205.30 79.58Q-203.26 80.28-200.98 80.28L-200.98 80.28Q-194.12 80.28-188.53 73.55L-188.53 73.55Q-184.47 68.47-180.53 59.71L-180.53 59.71Q-179.64 57.68-178.18 53.99Q-176.72 50.31-174.69 44.59L-174.69 44.59Q-151.96 30.37-141.80 12.21ZM-165.93 6.11L-165.93 6.11Q-165.93 10.69-173.55 24.53L-173.55 24.53Q-181.80 39.64-186.12 39.64L-186.12 39.64Q-188.40 39.64-188.40 36.47L-188.40 36.47Q-188.40 29.74-181.42 17.29L-181.42 17.29Q-173.93 3.70-168.21 3.70L-168.21 3.70Q-165.93 3.70-165.93 6.11ZM-183.58 48.28L-183.58 48.28Q-186.50 57.17-191.58 64.79L-191.58 64.79Q-198.69 75.33-205.04 75.33L-205.04 75.33Q-210.38 75.33-210.38 70.38L-210.38 70.38Q-210.38 64.15-199.83 56.66L-199.83 56.66Q-191.33 50.56-183.58 48.28ZM-104.33 12.21L-104.33 12.21L-105.35 11.32Q-124.40 38.75-134.43 38.75L-134.43 38.75Q-137.73 38.75-137.73 35.32L-137.73 35.32Q-137.73 34.05-135.32 30.12L-135.32 30.12L-125.29 12.97Q-122.62 8.40-122.62 6.75L-122.62 6.75Q-122.62 4.72-123.89 3.26Q-125.16 1.80-127.06 1.80L-127.06 1.80Q-129.98 1.80-140.40 10.56L-140.40 10.56Q-135.95 5.35-135.95 1.80L-135.95 1.80Q-135.95-1.13-139.00-1.13L-139.00-1.13Q-141.92-1.13-143.95 2.30L-143.95 2.30Q-146.11 5.61-146.11 8.53L-146.11 8.53Q-146.11 13.35-143.19 13.35L-143.19 13.35Q-141.03 13.35-138.49 11.45L-138.49 11.45Q-135.95 9.42-135.19 9.42L-135.19 9.42Q-134.68 9.42-134.68 10.30L-134.68 10.30Q-134.68 11.45-139.89 20.46Q-145.10 29.48-145.10 32.40L-145.10 32.40Q-144.97 41.55-138.49 41.55L-138.49 41.55Q-128.71 41.55-118.43 31.01L-118.43 31.01Q-112.71 25.16-104.33 12.21ZM-137.86 1.92L-137.86 1.92Q-137.86 4.46-142.81 10.69L-142.81 10.69Q-144.21 10.69-144.21 8.53L-144.21 8.53Q-144.21 6.37-142.56 3.57Q-140.91 0.78-139.00 0.78L-139.00 0.78Q-137.86 0.78-137.86 1.92ZM-50.23 12.21L-50.23 12.21L-51.24 11.32Q-54.29 15.00-58.04 19.07Q-61.79 23.13-66.23 27.58L-66.23 27.58Q-78.55 39.90-82.87 39.90L-82.87 39.90Q-85.66 39.90-85.66 37.36L-85.66 37.36Q-85.66 35.58-83.50 31.51L-83.50 31.51L-66.87 0.27Q-67.50 0.53-69.02 2.05L-69.02 2.05Q-70.55 3.70-71.06 3.70L-71.06 3.70Q-71.95 3.70-73.72 3.32Q-75.50 2.94-76.39 2.94L-76.39 2.94Q-77.53 2.94-79.06 4.84L-79.06 4.84Q-81.22 1.80-85.53 1.80L-85.53 1.80Q-96.33 1.80-105.09 10.18L-105.09 10.18Q-113.73 18.43-113.73 29.23L-113.73 29.23Q-113.73 41.55-105.35 41.55L-105.35 41.55Q-98.87 41.55-93.28 34.31L-93.28 34.31Q-89.85 41.55-83.63 41.55L-83.63 41.55Q-74.49 41.55-50.23 12.21ZM-80.96 7.13L-80.96 7.13Q-80.96 9.42-93.92 31.51L-93.92 31.51Q-98.87 39.90-103.95 39.90L-103.95 39.90Q-106.49 39.90-106.49 35.70L-106.49 35.70Q-106.49 28.85-99.25 17.16L-99.25 17.16Q-91.12 4.08-83.63 4.08L-83.63 4.08Q-80.96 4.08-80.96 7.13ZM1.84 29.48L17.34 12.21L16.32 11.32L0.95 28.47Q-9.08 39.64-12.13 39.64L-12.13 39.64Q-14.67 39.64-14.67 36.59L-14.67 36.59Q-14.67 35.45-12.76 32.40L-12.76 32.40L-0.44 12.46Q1.71 8.78 1.71 8.02L1.71 8.02Q1.71 5.61-0.00 3.70Q-1.71 1.80-4.13 1.80L-4.13 1.80Q-8.45 1.80-11.24 3.70L-11.24 3.70Q-13.40 5.10-19.24 10.56L-19.24 10.56Q-19.24 1.80-24.96 1.80L-24.96 1.80Q-32.58 1.80-42.99 12.46L-42.99 12.46L-36.51 0.27Q-37.27 0.53-38.93 2.18L-38.93 2.18Q-40.70 3.70-41.08 3.70L-41.08 3.70Q-41.72 3.70-43.43 3.32Q-45.15 2.94-46.04 2.94L-46.04 2.94Q-47.69 2.94-48.58 4.59L-48.58 4.59Q-49.21 5.22-51.63 9.92L-51.63 9.92L-69.15 43.07Q-65.60 39.51-64.58 39.51L-64.58 39.51Q-64.33 39.51-63.69 39.64Q-63.06 39.77-62.23 39.96Q-61.40 40.15-60.58 40.28Q-59.75 40.40-59.25 40.40L-59.25 40.40Q-57.72 40.40-53.15 31.39L-53.15 31.39Q-47.56 20.46-44.01 16.65L-44.01 16.65Q-32.70 4.97-29.53 4.97L-29.53 4.97Q-28.13 4.97-28.13 6.75L-28.13 6.75Q-28.13 8.15-47.05 43.07L-47.05 43.07Q-43.50 39.51-42.48 39.51L-42.48 39.51Q-42.10 39.51-40.51 39.96Q-38.93 40.40-38.29 40.40L-38.29 40.40Q-35.75 40.40-34.86 38.75L-34.86 38.75Q-31.31 32.40-28.64 27.51Q-25.97 22.62-24.19 19.07L-24.19 19.07Q-12.64 4.97-9.33 4.97L-9.33 4.97Q-7.05 4.97-7.05 7.13L-7.05 7.13Q-7.05 8.65-14.67 20.21L-14.67 20.21Q-22.29 31.89-22.29 33.80L-22.29 33.80Q-22.29 37.10-20.13 39.32Q-17.97 41.55-14.67 41.55L-14.67 41.55Q-10.60 41.55-6.54 38.24L-6.54 38.24Q-4.51 36.59 1.84 29.48L1.84 29.48ZM69.53 29.48L85.03 12.21L84.01 11.32L68.64 28.47Q58.61 39.64 55.56 39.64L55.56 39.64Q53.02 39.64 53.02 36.59L53.02 36.59Q53.02 35.45 54.93 32.40L54.93 32.40L67.25 12.46Q69.41 8.78 69.41 8.02L69.41 8.02Q69.41 5.61 67.69 3.70Q65.98 1.80 63.56 1.80L63.56 1.80Q59.25 1.80 56.45 3.70L56.45 3.70Q54.29 5.10 48.45 10.56L48.45 10.56Q48.45 1.80 42.74 1.80L42.74 1.80Q35.12 1.80 24.70 12.46L24.70 12.46L31.18 0.27Q30.42 0.53 28.77 2.18L28.77 2.18Q26.99 3.70 26.61 3.70L26.61 3.70Q25.97 3.70 24.26 3.32Q22.54 2.94 21.65 2.94L21.65 2.94Q20.00 2.94 19.11 4.59L19.11 4.59Q18.48 5.22 16.07 9.92L16.07 9.92L-1.46 43.07Q2.10 39.51 3.11 39.51L3.11 39.51Q3.37 39.51 4.00 39.64Q4.64 39.77 5.46 39.96Q6.29 40.15 7.11 40.28Q7.94 40.40 8.45 40.40L8.45 40.40Q9.97 40.40 14.54 31.39L14.54 31.39Q20.13 20.46 23.69 16.65L23.69 16.65Q34.99 4.97 38.16 4.97L38.16 4.97Q39.56 4.97 39.56 6.75L39.56 6.75Q39.56 8.15 20.64 43.07L20.64 43.07Q24.19 39.51 25.21 39.51L25.21 39.51Q25.59 39.51 27.18 39.96Q28.77 40.40 29.40 40.40L29.40 40.40Q31.94 40.40 32.83 38.75L32.83 38.75Q36.39 32.40 39.05 27.51Q41.72 22.62 43.50 19.07L43.50 19.07Q55.05 4.97 58.36 4.97L58.36 4.97Q60.64 4.97 60.64 7.13L60.64 7.13Q60.64 8.65 53.02 20.21L53.02 20.21Q45.40 31.89 45.40 33.80L45.40 33.80Q45.40 37.10 47.56 39.32Q49.72 41.55 53.02 41.55L53.02 41.55Q57.09 41.55 61.15 38.24L61.15 38.24Q63.18 36.59 69.53 29.48L69.53 29.48ZM107.38-12.94L107.38-12.94Q107.38-14.84 106.04-16.05Q104.71-17.25 102.81-17.25L102.81-17.25Q100.14-17.25 98.23-15.29Q96.33-13.32 96.33-10.65L96.33-10.65Q96.33-8.62 97.73-7.16Q99.12-5.70 101.16-5.70L101.16-5.70Q103.70-5.70 105.54-7.98Q107.38-10.27 107.38-12.94ZM115.00 12.21L115.00 12.21L113.98 11.32Q109.03 17.29 99.89 26.56L99.89 26.56Q87.44 39.13 84.52 39.13L84.52 39.13Q81.72 39.13 81.72 35.83L81.72 35.83Q81.72 33.29 82.74 31.01L82.74 31.01L98.87 0.27Q98.11 0.53 96.33 2.30Q94.55 4.08 94.04 4.08L94.04 4.08Q93.92 4.08 92.39 3.51Q90.87 2.94 89.73 2.94L89.73 2.94Q87.82 2.94 86.30 5.61L86.30 5.61Q83.50 10.69 81.53 14.18Q79.57 17.67 78.55 19.70L78.55 19.70Q73.85 28.21 73.85 34.18L73.85 34.18Q73.85 41.55 81.72 41.55L81.72 41.55Q89.98 41.55 115.00 12.21ZM164.02 12.21L164.02 12.21L163.00 11.32L144.34 31.89Q137.48 39.51 133.79 39.51L133.79 39.51Q131.13 39.51 131.13 37.23L131.13 37.23Q131.13 36.59 133.41 32.91L133.41 32.91L145.22 14.50Q147.64 10.81 147.64 7.64L147.64 7.64Q147.64 1.80 141.80 1.80L141.80 1.80Q134.94 1.80 122.75 12.46L122.75 12.46L129.22 0.27Q128.97 0.40 128.33 0.91Q127.70 1.41 126.68 2.30L126.68 2.30Q124.65 3.95 124.52 3.95L124.52 3.95Q124.02 3.95 122.43 3.45Q120.84 2.94 120.08 2.94L120.08 2.94Q117.92 2.94 116.27 5.99L116.27 5.99L96.96 43.07Q100.52 39.51 101.66 39.51L101.66 39.51Q102.30 39.51 103.95 39.96Q105.60 40.40 106.36 40.40L106.36 40.40Q108.27 40.40 110.55 36.21L110.55 36.21Q112.59 32.40 113.73 30.18Q114.87 27.96 115.25 27.32L115.25 27.32Q117.16 24.02 119.51 20.78Q121.86 17.54 124.65 14.24L124.65 14.24Q132.40 5.35 137.35 5.35L137.35 5.35Q139.26 5.35 139.26 6.49L139.26 6.49Q139.26 7.51 137.48 10.30L137.48 10.30L126.94 26.43Q124.14 30.75 124.27 34.18L124.27 34.18Q124.65 41.67 131.64 41.67L131.64 41.67Q137.60 41.67 144.46 34.18L144.46 34.18Q153.23 24.40 158.11 18.94Q163.00 13.48 164.02 12.21ZM208.09 12.21L208.09 12.21L207.07 11.32Q196.28 29.35 175.70 42.31L175.70 42.31Q179.01 34.43 181.55 29.04Q184.09 23.64 185.86 20.59L185.86 20.59Q189.42 14.24 192.47 9.23Q195.52 4.21 198.06 0.27L198.06 0.27Q197.80 0.40 197.23 0.91Q196.66 1.41 195.64 2.30L195.64 2.30Q193.48 4.08 193.48 4.08L193.48 4.08L191.96 3.45Q190.44 2.94 188.66 2.94L188.66 2.94Q187.64 2.94 185.99 4.08L185.99 4.08Q183.83 1.80 181.04 1.80L181.04 1.80Q171.13 1.80 162.62 10.69L162.62 10.69Q154.24 19.45 154.24 29.35L154.24 29.35Q154.24 41.55 163.13 41.55L163.13 41.55Q166.43 41.55 170.75 36.47L170.75 36.47L166.94 46.25Q162.12 48.02 157.61 50.25Q153.10 52.47 149.03 55.26L149.03 55.26Q137.60 63.14 137.60 70.76L137.60 70.76Q137.60 72.92 138.56 74.69Q139.51 76.47 141.03 77.68Q142.56 78.88 144.59 79.58Q146.62 80.28 148.91 80.28L148.91 80.28Q155.77 80.28 161.35 73.55L161.35 73.55Q165.42 68.47 169.35 59.71L169.35 59.71Q170.24 57.68 171.70 53.99Q173.16 50.31 175.20 44.59L175.20 44.59Q197.93 30.37 208.09 12.21ZM183.96 6.11L183.96 6.11Q183.96 10.69 176.34 24.53L176.34 24.53Q168.08 39.64 163.77 39.64L163.77 39.64Q161.48 39.64 161.48 36.47L161.48 36.47Q161.48 29.74 168.47 17.29L168.47 17.29Q175.96 3.70 181.67 3.70L181.67 3.70Q183.96 3.70 183.96 6.11ZM166.31 48.28L166.31 48.28Q163.39 57.17 158.31 64.79L158.31 64.79Q151.19 75.33 144.84 75.33L144.84 75.33Q139.51 75.33 139.51 70.38L139.51 70.38Q139.51 64.15 150.05 56.66L150.05 56.66Q158.56 50.56 166.31 48.28ZM276.54 12.21L276.54 12.21L275.53 11.32Q271.84 16.15 268.80 20.15Q265.75 24.15 263.33 27.20L263.33 27.20Q259.91 31.39 255.71 34.69L255.71 34.69Q249.87 39.13 246.32 39.13L246.32 39.13Q245.05 39.13 244.09 37.42Q243.14 35.70 243.14 34.31L243.14 34.31Q243.14 32.40 245.81 27.58L245.81 27.58L259.02 4.46L268.54 4.46L269.30 2.56L259.78 2.56L272.61-19.92L271.21-19.92Q268.41-15.60 266.26-12.49Q264.10-9.38 262.45-7.48L262.45-7.48Q257.24-1.38 251.14 2.56L251.14 2.56L241.11 2.56L239.08 4.46L248.22 4.46L238.44 24.66Q235.78 30.24 235.78 33.42L235.78 33.42Q235.78 36.59 237.62 39.07Q239.46 41.55 242.51 41.55L242.51 41.55Q252.16 41.55 262.19 31.13L262.19 31.13Q265.11 27.96 268.73 23.32Q272.35 18.69 276.54 12.21ZM315.66 12.21L315.66 12.21L314.64 11.32Q309.82 19.32 299.53 28.34L299.53 28.34Q286.58 39.77 278.19 39.77L278.19 39.77Q274.76 39.77 274.76 35.07L274.76 35.07Q274.76 31.13 277.05 26.18L277.05 26.18Q282.89 26.18 291.78 22.12L291.78 22.12Q303.34 16.78 303.34 8.78L303.34 8.78Q303.34 5.86 301.18 3.83Q299.02 1.80 296.10 1.80L296.10 1.80Q287.21 1.80 277.94 9.42L277.94 9.42Q267.27 18.18 267.27 30.37L267.27 30.37Q267.27 35.20 270.38 38.37Q273.49 41.55 278.19 41.55L278.19 41.55Q287.46 41.55 300.80 29.35L300.80 29.35Q311.09 19.83 315.66 12.21ZM296.99 6.37L296.99 6.37Q296.99 10.81 290.00 17.04L290.00 17.04Q282.89 23.13 278.32 23.13L278.32 23.13Q288.23 3.45 294.32 3.45L294.32 3.45Q296.99 3.45 296.99 6.37ZM365.06 12.21L365.06 12.21L364.05 11.32Q355.54 23.13 344.49 30.88L344.49 30.88Q331.28 40.02 318.96 40.02L318.96 40.02Q313.25 40.02 313.25 35.45L313.25 35.45Q313.25 28.34 320.99 16.02L320.99 16.02Q329.12 3.07 334.84 3.07L334.84 3.07Q339.15 3.07 339.15 5.73L339.15 5.73Q339.15 6.88 337.76 8.40Q336.36 9.92 335.22 9.92L335.22 9.92Q333.57 9.92 331.53 8.27L331.53 8.27Q330.26 9.92 330.26 12.59L330.26 12.59Q330.26 15.89 334.84 15.89L334.84 15.89Q337.76 15.89 340.11 13.61Q342.46 11.32 342.46 8.40L342.46 8.40Q342.46 5.48 340.11 3.64Q337.76 1.80 334.84 1.80L334.84 1.80Q322.77 1.80 314.64 10.18L314.64 10.18Q306.39 18.43 306.39 30.37L306.39 30.37Q306.39 41.55 318.96 41.55L318.96 41.55Q332.04 41.55 345.25 32.40L345.25 32.40Q356.04 24.78 365.06 12.21ZM411.80-37.32L411.80-37.32Q411.80-41.13 407.23-41.13L407.23-41.13Q398.59-41.13 380.94-15.60L380.94-15.60Q375.86-8.24 370.84 0.08Q365.82 8.40 360.74 17.67L360.74 17.67Q358.58 21.61 355.28 27.89Q351.98 34.18 347.28 42.94L347.28 42.94Q348.42 42.31 350.08 40.66L350.08 40.66Q351.35 39.77 352.11 39.77L352.11 39.77Q352.74 39.77 354.33 40.15Q355.92 40.53 356.68 40.53L356.68 40.53Q358.46 40.53 361.76 34.43L361.76 34.43Q363.41 31.13 365.12 27.70Q366.84 24.27 368.62 20.85L368.62 20.85Q373.06 12.84 377.76 9.03Q382.46 5.22 385.51 5.22L385.51 5.22Q386.52 5.22 386.52 6.49L386.52 6.49Q386.52 7.51 378.27 20.21L378.27 20.21Q370.14 32.53 370.14 35.70L370.14 35.70Q370.14 38.50 372.17 40.02Q374.21 41.55 377.13 41.55L377.13 41.55Q382.84 41.55 392.37 31.77L392.37 31.77Q394.02 30.12 398.02 25.23Q402.02 20.34 408.62 12.21L408.62 12.21L407.61 11.32Q401.26 18.81 397.57 23.07Q393.89 27.32 392.75 28.59L392.75 28.59Q382.97 38.88 379.29 38.88L379.29 38.88Q377.51 38.88 377.51 36.59L377.51 36.59L385.89 23.77Q394.14 11.07 394.14 7.13L394.14 7.13Q394.14 1.80 388.94 1.80L388.94 1.80Q382.59 1.80 372.55 11.32L372.55 11.32Q373.19 9.92 373.82 8.53Q374.46 7.13 375.09 5.73L375.09 5.73Q384.49 0.91 395.80-10.02L395.80-10.02Q411.80-25.38 411.80-37.32ZM406.08-35.42L406.08-35.42Q406.08-28.68 398.46-18.27L398.46-18.27Q389.70-6.21 376.62 2.30L376.62 2.30Q389.19-19.41 393.38-25.89L393.38-25.89Q401.51-38.59 404.81-38.59L404.81-38.59Q406.08-38.59 406.08-35.42Z"/></g>
</svg>